<svg id="visual" viewBox="0 0 1280 650" width="1280" height="650" xmlns="http://www.w3.org/2000/svg" xmlns:xlink="http://www.w3.org/1999/xlink" version="1.1"><rect x="0" y="0" width="1280" height="650" fill="#fff"></rect><path d="M0 13L26.7 15.7C53.3 18.3 106.7 23.7 160 29.2C213.3 34.7 266.7 40.3 320 37.5C373.3 34.7 426.7 23.3 480 21.3C533.3 19.3 586.7 26.7 640 33C693.3 39.3 746.7 44.7 800 42.7C853.3 40.7 906.7 31.3 960 29.5C1013.3 27.7 1066.7 33.3 1120 35.2C1173.3 37 1226.7 35 1253.3 34L1280 33L1280 0L1253.3 0C1226.7 0 1173.3 0 1120 0C1066.7 0 1013.3 0 960 0C906.7 0 853.3 0 800 0C746.7 0 693.3 0 640 0C586.7 0 533.3 0 480 0C426.7 0 373.3 0 320 0C266.7 0 213.3 0 160 0C106.7 0 53.3 0 26.7 0L0 0Z" fill="#141414" stroke-linecap="round" stroke-linejoin="miter"></path></svg>