<svg id="visual" viewBox="0 0 1550 150" width="1550" height="150" xmlns="http://www.w3.org/2000/svg" xmlns:xlink="http://www.w3.org/1999/xlink" version="1.1"><rect x="0" y="0" width="1550" height="150" fill="#fff"></rect><path d="M0 97L32.3 101.3C64.7 105.7 129.3 114.3 194 113.7C258.7 113 323.3 103 387.8 96.5C452.3 90 516.7 87 581.2 91.5C645.7 96 710.3 108 775 109.2C839.7 110.3 904.3 100.7 969 96C1033.7 91.3 1098.3 91.7 1162.8 88.8C1227.3 86 1291.7 80 1356.2 78.5C1420.7 77 1485.3 80 1517.7 81.5L1550 83L1550 0L1517.7 0C1485.3 0 1420.7 0 1356.2 0C1291.7 0 1227.3 0 1162.8 0C1098.3 0 1033.7 0 969 0C904.3 0 839.7 0 775 0C710.3 0 645.7 0 581.2 0C516.7 0 452.3 0 387.8 0C323.3 0 258.7 0 194 0C129.3 0 64.7 0 32.3 0L0 0Z" fill="#71bfbc"></path><path d="M0 76L32.3 76.2C64.7 76.3 129.3 76.7 194 72.8C258.7 69 323.3 61 387.8 61.8C452.3 62.7 516.7 72.3 581.2 73C645.7 73.7 710.3 65.3 775 66.7C839.7 68 904.3 79 969 82.2C1033.7 85.3 1098.3 80.7 1162.8 80C1227.3 79.3 1291.7 82.7 1356.2 79.2C1420.7 75.7 1485.3 65.3 1517.7 60.2L1550 55L1550 0L1517.7 0C1485.3 0 1420.7 0 1356.2 0C1291.7 0 1227.3 0 1162.8 0C1098.3 0 1033.7 0 969 0C904.3 0 839.7 0 775 0C710.3 0 645.7 0 581.2 0C516.7 0 452.3 0 387.8 0C323.3 0 258.7 0 194 0C129.3 0 64.7 0 32.3 0L0 0Z" fill="#519796"></path><path d="M0 58L32.3 56.8C64.7 55.7 129.3 53.3 194 51.7C258.7 50 323.3 49 387.8 50.7C452.3 52.3 516.7 56.7 581.2 57.8C645.7 59 710.3 57 775 53.5C839.7 50 904.3 45 969 45.5C1033.7 46 1098.3 52 1162.8 55.5C1227.3 59 1291.7 60 1356.2 58.5C1420.7 57 1485.3 53 1517.7 51L1550 49L1550 0L1517.7 0C1485.3 0 1420.7 0 1356.2 0C1291.7 0 1227.3 0 1162.8 0C1098.3 0 1033.7 0 969 0C904.3 0 839.7 0 775 0C710.3 0 645.7 0 581.2 0C516.7 0 452.3 0 387.8 0C323.3 0 258.7 0 194 0C129.3 0 64.7 0 32.3 0L0 0Z" fill="#337172"></path><path d="M0 30L32.3 28.7C64.7 27.3 129.3 24.7 194 26.5C258.7 28.3 323.3 34.7 387.8 34.5C452.3 34.3 516.7 27.7 581.2 23.2C645.7 18.7 710.3 16.3 775 19.8C839.7 23.3 904.3 32.7 969 36.5C1033.7 40.3 1098.3 38.7 1162.8 35.3C1227.3 32 1291.7 27 1356.2 25.3C1420.7 23.7 1485.3 25.3 1517.7 26.2L1550 27L1550 0L1517.7 0C1485.3 0 1420.7 0 1356.2 0C1291.7 0 1227.3 0 1162.8 0C1098.3 0 1033.7 0 969 0C904.3 0 839.7 0 775 0C710.3 0 645.7 0 581.2 0C516.7 0 452.3 0 387.8 0C323.3 0 258.7 0 194 0C129.3 0 64.7 0 32.3 0L0 0Z" fill="#154d4f"></path></svg>